<svg width="91" height="100" viewBox="0 0 91 100" fill="none" xmlns="http://www.w3.org/2000/svg">
<path d="M89.6485 61.8758C87.5615 57.8719 82.6054 56.3118 78.6015 58.3989L56.8995 69.7094C56.9368 69.448 56.9617 69.1803 56.9721 68.9107C57.1671 64.3985 53.6549 60.5709 49.1448 60.3759L29.9821 59.5482C28.5652 59.4859 27.3204 59.7639 26.0632 60.4195L13.3711 67.0332L12.0039 64.4089C11.2384 62.9401 9.42112 62.3696 7.9544 63.133L1.61455 66.4378C0.145762 67.2033 -0.424742 69.0185 0.338696 70.4873L14.8772 98.3839C15.2465 99.0934 15.873 99.6162 16.6385 99.8589C16.9372 99.9523 17.2422 100 17.5472 100C18.0222 100 18.4952 99.8859 18.9268 99.6598L25.2666 96.355C25.9761 95.9857 26.4989 95.3592 26.7416 94.5937C26.9823 93.8282 26.9117 93.015 26.5425 92.3055L25.1753 89.6791L26.3972 89.0422C26.9097 88.7746 27.4885 88.8264 28.3183 89.0048L42.4979 92.0482C43.67 92.2992 44.9376 92.5316 46.2508 92.5316C47.6158 92.5316 49.0328 92.2826 50.4455 91.5462L86.1736 72.927C88.1071 71.9208 89.5344 70.2135 90.192 68.1223C90.8497 66.0249 90.6567 63.8093 89.6485 61.8758ZM24.3662 93.8427C24.3414 93.9195 24.277 94.0605 24.1152 94.1435L17.7754 97.4483C17.6136 97.5313 17.4621 97.5043 17.3854 97.4815C17.3086 97.4566 17.1675 97.3923 17.0845 97.2305L2.54603 69.3318C2.4174 69.0849 2.51698 68.7675 2.76386 68.641L9.10371 65.3362C9.18669 65.2926 9.26553 65.2802 9.33606 65.2802C9.40245 65.2802 9.45846 65.2926 9.4958 65.3051C9.57256 65.33 9.71363 65.3943 9.79661 65.5561L22.3913 89.7247L24.3351 93.4548C24.4181 93.6145 24.3891 93.7659 24.3662 93.8427ZM87.8167 67.3692C87.3582 68.8256 86.3645 70.0143 85.0222 70.7155L49.2942 89.3347C47.4561 90.2911 45.5309 90.15 43.0207 89.6106L28.8411 86.5672C27.7063 86.3245 26.4844 86.1876 25.2479 86.8328L24.026 87.4697L14.5245 69.2384L27.2167 62.6247C28.0818 62.1746 28.9033 61.992 29.8783 62.0335L49.0411 62.8612C52.1819 62.9961 54.6258 65.6619 54.4888 68.8028C54.354 71.9416 51.6861 74.3833 48.5494 74.2506L35.6539 73.6925C34.9652 73.6635 34.3864 74.1945 34.3573 74.8812C34.3283 75.5679 34.8594 76.1488 35.546 76.1778L48.4415 76.7359C48.5618 76.7421 48.6801 76.7442 48.8004 76.7442C51.5534 76.7442 54.02 75.3667 55.5075 73.2423L79.757 60.6062C82.5431 59.154 85.9931 60.239 87.4453 63.0272C88.1424 64.3694 88.2751 65.9108 87.8167 67.3692ZM54.4411 57.4508C70.2804 57.4508 83.1655 44.5636 83.1655 28.7264C83.1655 12.8892 70.2804 0 54.4411 0C38.6019 0 25.7147 12.8872 25.7147 28.7244C25.7147 44.5615 38.6019 57.4508 54.4411 57.4508ZM29.3888 36.5268H39.218C39.7055 39.7154 40.4897 42.7256 41.5498 45.4349C39.9462 46.2378 38.4152 47.1921 36.9816 48.2895C33.4798 45.1632 30.8202 41.1136 29.3888 36.5268ZM80.676 28.7264C80.676 30.5458 80.4893 32.3237 80.1346 34.0394H69.9796C70.1559 32.303 70.2472 30.5271 70.2472 28.7264C70.2472 26.9257 70.1538 25.1499 69.9796 23.4135H80.1346C80.4893 25.1291 80.676 26.905 80.676 28.7264ZM67.7598 28.7264C67.7598 30.5396 67.6602 32.3175 67.4714 34.0394H55.6838V23.4135H67.4714C67.6602 25.1333 67.7598 26.9112 67.7598 28.7264ZM53.1964 42.4081C49.9767 42.5492 46.8151 43.2317 43.8464 44.408C42.9336 42.0451 42.2178 39.3855 41.749 36.5288H53.1964V42.4081ZM53.1964 44.8997V54.8389C49.9539 54.2145 47.0059 51.1856 44.8359 46.6921C47.4914 45.6507 50.3169 45.0387 53.1964 44.8997ZM43.0497 48.7252C44.1202 50.7437 45.3276 52.4345 46.6366 53.7767C43.8567 52.9096 41.276 51.5901 38.9774 49.9056C40.1101 49.082 41.303 48.3518 42.5435 47.7211C42.7074 48.0613 42.8775 48.3974 43.0497 48.7252ZM66.3367 47.7211C67.5772 48.3518 68.7722 49.082 69.9028 49.9056C67.6042 51.5881 65.0235 52.9075 62.2435 53.7767C63.5526 52.4345 64.76 50.7437 65.8305 48.7252C66.0047 48.3974 66.1728 48.0613 66.3367 47.7211ZM55.6859 54.841V44.9018C58.5633 45.0387 61.3888 45.6507 64.0463 46.6942C61.8764 51.1856 58.9284 54.2165 55.6859 54.841ZM55.6859 42.4081V36.5288H67.1333C66.6644 39.3855 65.9466 42.0472 65.0359 44.4101C62.0651 43.2318 58.9056 42.5471 55.6859 42.4081ZM55.6859 20.924V13.6651C58.7541 13.5365 61.7353 12.9287 64.5546 11.8686C65.6977 14.5095 66.5856 17.5819 67.1333 20.924H55.6859ZM55.6859 2.6098C58.6463 3.1803 61.3577 5.75275 63.4592 9.61143C60.9822 10.518 58.3724 11.045 55.6859 11.1694V2.6098ZM53.1964 11.1694C50.5098 11.045 47.9001 10.518 45.423 9.61143C47.5246 5.75275 50.236 3.17823 53.1964 2.6098V11.1694ZM65.7827 8.63639C64.7247 6.65726 63.5339 4.99554 62.2456 3.67404C64.6314 4.41881 66.8698 5.49758 68.9112 6.8502C67.9009 7.52028 66.8594 8.11983 65.7827 8.63639ZM43.0995 8.63639C42.0228 8.11775 40.9793 7.52028 39.9711 6.8502C42.0125 5.49551 44.2509 4.41674 46.6366 3.67404C45.3463 4.99554 44.1575 6.65726 43.0995 8.63639ZM53.1964 13.6651V20.924H41.749C42.2967 17.5819 43.1846 14.5095 44.3277 11.8686C47.1449 12.9266 50.126 13.5344 53.1964 13.6651ZM53.1964 23.4135V34.0394H41.4088C41.22 32.3175 41.1204 30.5396 41.1204 28.7264C41.1204 26.9133 41.22 25.1354 41.4088 23.4135H53.1964ZM38.9006 34.0373H28.7456C28.3909 32.3216 28.2042 30.5437 28.2042 28.7244C28.2042 26.905 28.3909 25.1271 28.7456 23.4114H38.9006C38.7243 25.1457 38.633 26.9236 38.633 28.7244C38.6309 30.5271 38.7243 32.303 38.9006 34.0373ZM71.8986 48.2895C70.463 47.1921 68.934 46.2378 67.3304 45.4349C68.3905 42.7276 69.1747 39.7174 69.6643 36.5268H79.4935C78.06 41.1136 75.4004 45.1632 71.8986 48.2895ZM79.4914 20.924H69.6622C69.1041 17.2811 68.1602 13.8726 66.8615 10.8811C68.3075 10.1861 69.7016 9.36249 71.0314 8.41856C74.9606 11.6341 77.9438 15.9658 79.4914 20.924ZM37.8488 8.41856C39.1786 9.36249 40.5727 10.184 42.0187 10.8811C40.72 13.8726 39.7761 17.2811 39.218 20.924H29.3888C30.9364 15.9658 33.9196 11.6341 37.8488 8.41856Z" fill="#CC1C19"/>
</svg>
