<svg width="104" height="100" viewBox="0 0 104 100" fill="none" xmlns="http://www.w3.org/2000/svg">
<path fill-rule="evenodd" clip-rule="evenodd" d="M51.5318 52.6567C46.5634 52.6567 41.7066 51.1834 37.5756 48.4231C33.4445 45.6628 30.2247 41.7395 28.3234 37.1493C26.4221 32.5591 25.9246 27.5082 26.8939 22.6353C27.8632 17.7624 30.2557 13.2863 33.7689 9.7731C37.282 6.25992 41.7581 3.86741 46.631 2.89813C51.504 1.92885 56.5549 2.42632 61.1451 4.32764C65.7353 6.22896 69.6586 9.44873 72.4189 13.5798C75.1791 17.7109 76.6524 22.5677 76.6524 27.5361C76.6449 34.1961 73.9958 40.5813 69.2864 45.2907C64.577 50.0001 58.1919 52.6491 51.5318 52.6567ZM79.0679 27.5361C79.0679 12.353 66.7143 0 51.5318 0C36.3494 0 23.9958 12.353 23.9958 27.5361C23.9958 42.7191 36.3489 55.0721 51.5318 55.0721C66.7147 55.0721 79.0679 42.7193 79.0679 27.5361ZM48.0655 44.9699C48.107 44.8168 48.1179 44.6569 48.0976 44.4996C48.0772 44.3422 48.026 44.1904 47.9469 44.0529C47.8678 43.9153 47.7622 43.7947 47.6364 43.6981C47.5106 43.6014 47.3669 43.5305 47.2136 43.4895C43.643 42.5222 40.5002 40.3849 38.2881 37.4198C36.0761 34.4547 34.9228 30.8332 35.0129 27.135C35.103 23.4368 36.4312 19.8758 38.7849 17.0218C41.1386 14.1679 44.3818 12.1862 47.9952 11.3939L45.4427 13.4365C45.1926 13.6367 45.0322 13.9281 44.997 14.2465C44.9617 14.5649 45.0543 14.8843 45.2545 15.1344C45.4547 15.3845 45.746 15.5448 46.0644 15.5801C46.3829 15.6154 46.7022 15.5228 46.9523 15.3226L52.2865 11.0521C52.4299 10.9373 52.5452 10.7913 52.6237 10.6251C52.7022 10.459 52.7417 10.2772 52.7393 10.0935C52.7369 9.90984 52.6927 9.72911 52.6099 9.5651C52.5271 9.40109 52.4081 9.25813 52.2617 9.14709L46.9276 5.09417C46.8017 4.99351 46.657 4.91905 46.502 4.87518C46.3469 4.83131 46.1846 4.81892 46.0247 4.83873C45.8648 4.85855 45.7104 4.91017 45.5708 4.99055C45.4311 5.07094 45.3089 5.17846 45.2114 5.30679C45.114 5.43512 45.0432 5.58166 45.0032 5.73778C44.9632 5.89389 44.9549 6.05643 44.9787 6.21581C45.0026 6.37519 45.058 6.52819 45.1419 6.6658C45.2258 6.80341 45.3363 6.92284 45.467 7.01707L47.9912 8.93533C43.7817 9.73611 39.9682 11.9407 37.1737 15.189C34.3792 18.4373 32.7688 22.5373 32.6057 26.8191C32.4425 31.101 33.7363 35.3116 36.2755 38.7631C38.8148 42.2146 42.4495 44.703 46.5858 45.8218C46.7389 45.8632 46.8986 45.874 47.0559 45.8536C47.2132 45.8332 47.3649 45.782 47.5023 45.7029C47.6397 45.6237 47.7602 45.5183 47.8568 45.3925C47.9534 45.2667 48.0242 45.1231 48.0653 44.9699H48.0655ZM70.4687 27.5367C70.4617 23.3965 69.1017 19.3721 66.5958 16.0765C64.0899 12.7808 60.5756 10.3945 56.588 9.28094C56.4343 9.23586 56.2732 9.22181 56.114 9.23958C55.9548 9.25736 55.8008 9.30662 55.6608 9.38449C55.5209 9.46236 55.3978 9.5673 55.2988 9.69318C55.1998 9.81907 55.1268 9.96339 55.0841 10.1177C55.0413 10.2721 55.0298 10.4334 55.05 10.5923C55.0702 10.7512 55.1218 10.9044 55.2018 11.0432C55.2818 11.1819 55.3886 11.3034 55.516 11.4004C55.6434 11.4975 55.7888 11.5683 55.9438 11.6086C59.5511 12.6091 62.7117 14.8047 64.9082 17.8359C67.1047 20.8671 68.2069 24.5543 68.0344 28.2937C67.8618 32.0332 66.4247 35.6032 63.9583 38.4192C61.492 41.2352 58.1426 43.1304 54.4585 43.7944L57.0417 41.4631C57.2794 41.2484 57.4221 40.948 57.4384 40.6281C57.4547 40.3082 57.3432 39.9949 57.1285 39.7571C56.9138 39.5194 56.6134 39.3766 56.2935 39.3604C55.9736 39.3441 55.6603 39.4555 55.4225 39.6702L50.4507 44.1602C50.3145 44.2833 50.2081 44.4359 50.1397 44.6063C50.0713 44.7767 50.0425 44.9605 50.0557 45.1436C50.0689 45.3268 50.1237 45.5045 50.2158 45.6634C50.308 45.8222 50.4351 45.958 50.5876 46.0603L56.2639 49.8646C56.3956 49.9529 56.5435 50.0144 56.699 50.0455C56.8545 50.0767 57.0147 50.0769 57.1702 50.0462C57.3258 50.0154 57.4739 49.9543 57.6058 49.8664C57.7378 49.7785 57.8512 49.6654 57.9395 49.5336C58.0278 49.4019 58.0893 49.254 58.1204 49.0985C58.1516 48.943 58.1518 48.7828 58.121 48.6273C58.0903 48.4717 58.0292 48.3236 57.9413 48.1917C57.8533 48.0597 57.7402 47.9463 57.6085 47.858L55.055 46.1471C59.3874 45.321 63.2964 43.0109 66.1097 39.6142C68.923 36.2175 70.4645 31.9465 70.4691 27.5361L70.4687 27.5367ZM55.0501 28.1568L58.8124 21.6414C58.9631 21.3647 58.9998 21.04 58.9145 20.7367C58.8292 20.4334 58.6287 20.1754 58.3559 20.0178C58.083 19.8602 57.7594 19.8155 57.454 19.8932C57.1487 19.9708 56.8858 20.1648 56.7214 20.4337L51.9125 28.7609C51.8064 28.9445 51.7506 29.1529 51.7507 29.365C51.7507 29.577 51.8066 29.7853 51.9127 29.969C52.0187 30.1526 52.1713 30.305 52.355 30.411C52.5387 30.5169 52.7471 30.5726 52.9592 30.5725H58.3275V34.0346C58.3275 34.3549 58.4547 34.6621 58.6812 34.8886C58.9077 35.1151 59.2149 35.2423 59.5352 35.2423C59.8555 35.2423 60.1627 35.1151 60.3892 34.8886C60.6157 34.6621 60.7429 34.3549 60.7429 34.0346V30.5725H61.9251C62.2454 30.5725 62.5526 30.4452 62.7791 30.2187C63.0056 29.9923 63.1328 29.6851 63.1328 29.3648C63.1328 29.0444 63.0056 28.7373 62.7791 28.5108C62.5526 28.2843 62.2454 28.157 61.9251 28.157H60.7429V26.2076C60.7429 25.8873 60.6157 25.5801 60.3892 25.3536C60.1627 25.1271 59.8555 24.9998 59.5352 24.9998C59.2149 24.9998 58.9077 25.1271 58.6812 25.3536C58.4547 25.5801 58.3275 25.8873 58.3275 26.2076V28.1572L55.0501 28.1568ZM50.0721 33.9923C50.0721 33.672 49.9449 33.3648 49.7184 33.1384C49.4919 32.9119 49.1847 32.7846 48.8644 32.7846H43.021C43.097 32.2891 43.2717 31.8138 43.5349 31.3871C43.798 30.9603 44.1441 30.5908 44.5528 30.3003C45.6961 29.4561 46.8946 28.6584 48.1156 27.931C48.1832 27.8906 48.2466 27.8434 48.3046 27.7901C49.0766 27.1029 49.5892 26.1713 49.7563 25.1514C49.9235 24.1314 49.7352 23.0849 49.2229 22.1873C48.4157 20.7561 46.8374 19.891 45.0037 19.8725C43.0941 19.8507 41.3866 20.732 40.5395 22.1671C40.1545 22.8222 39.9462 23.5661 39.9352 24.3259C39.9242 25.0857 40.1108 25.8353 40.4767 26.5012C40.5536 26.64 40.657 26.7623 40.7811 26.8611C40.9052 26.9599 41.0475 27.0333 41.1999 27.0771C41.3524 27.1209 41.512 27.1343 41.6696 27.1164C41.8272 27.0985 41.9798 27.0498 42.1185 26.973C42.2573 26.8961 42.3796 26.7927 42.4784 26.6686C42.5772 26.5445 42.6506 26.4022 42.6944 26.2498C42.7382 26.0973 42.7516 25.9377 42.7337 25.7801C42.7158 25.6225 42.6671 25.4699 42.5903 25.3312C42.4267 25.0339 42.3432 24.6991 42.348 24.3598C42.3528 24.0205 42.4458 23.6883 42.6178 23.3958C43.0101 22.7301 43.9425 22.2887 44.9453 22.2887H44.9795C45.9415 22.2982 46.7402 22.7046 47.119 23.3757C47.3496 23.7799 47.4401 24.249 47.3764 24.71C47.3126 25.171 47.0983 25.598 46.7668 25.9246C45.5152 26.6748 44.2891 27.4932 43.1172 28.3601C42.3154 28.939 41.6644 29.702 41.219 30.585C40.7736 31.4679 40.5468 32.4449 40.5577 33.4338V33.9921C40.5577 34.3125 40.6849 34.6196 40.9114 34.8461C41.1379 35.0726 41.4451 35.1999 41.7654 35.1999H48.865C49.1853 35.1999 49.4925 35.0726 49.719 34.8461C49.9455 34.6196 50.0727 34.3125 50.0727 33.9921L50.0721 33.9923ZM2.50233 53.1122C2.39158 53.5893 2.38717 54.085 2.48941 54.564C2.59164 55.0431 2.79802 55.4938 3.09392 55.8841L18.495 76.9659C19.0252 77.677 19.2615 78.5648 19.155 79.4454L18.8046 82.6901L36.5921 82.9258L38.6718 70.8464C38.8384 69.9698 38.7936 69.0662 38.5412 68.2104C38.2887 67.3546 37.8359 66.5714 37.2203 65.9255L19.4467 46.6382C18.8243 45.9655 17.9614 45.5659 17.0458 45.5264C16.1302 45.4869 15.236 45.8107 14.558 46.4273L14.3547 46.6106C13.7037 47.1969 13.3005 48.0093 13.2271 48.8823C13.1538 49.7553 13.4158 50.6235 13.9598 51.3103L26.3307 67.1292C26.4341 67.2535 26.5116 67.3973 26.5584 67.5521C26.6052 67.7068 26.6205 67.8694 26.6033 68.0302C26.5861 68.191 26.5368 68.3467 26.4583 68.4881C26.3798 68.6294 26.2737 68.7536 26.1463 68.8532C26.0189 68.9528 25.8728 69.0258 25.7167 69.0679C25.5606 69.11 25.3976 69.1203 25.2374 69.0982C25.0772 69.0761 24.9231 69.0221 24.7842 68.9393C24.6453 68.8565 24.5244 68.7467 24.4287 68.6163L12.0574 52.7976C11.1497 51.6269 10.7147 50.158 10.8385 48.6818C10.9623 47.2057 11.6359 45.8298 12.7259 44.8266L12.9292 44.6424C13.3982 44.2133 13.9346 43.8642 14.517 43.6092L14.9862 27.7551C15.0383 25.9546 14.3841 23.8759 12.3851 23.4401C12.3332 23.4284 12.2821 23.4135 12.2321 23.3954C11.881 23.2761 11.5082 23.2345 11.1395 23.2735C10.7707 23.3126 10.4148 23.4313 10.0965 23.6214C9.6429 23.8809 9.24819 24.2318 8.93741 24.652C8.62663 25.0721 8.40655 25.5522 8.29115 26.0618L2.50233 53.1122ZM39.4969 97.567L15.7734 97.2538L15.9366 85.0671L39.6575 85.3815L39.4965 97.567H39.4969ZM16.5435 78.3894C16.6305 78.5012 16.6939 78.6295 16.73 78.7664C16.766 78.9034 16.774 79.0462 16.7535 79.1863L16.3793 82.6563L14.7611 82.6362C14.6022 82.6321 14.444 82.6603 14.2963 82.7192C14.1486 82.778 14.0143 82.8662 13.9016 82.9784C13.7879 83.089 13.6971 83.2211 13.6345 83.3669C13.5719 83.5127 13.5388 83.6695 13.5369 83.8282L13.3412 98.4294C13.3377 98.7494 13.4611 99.0579 13.6845 99.2871C13.9079 99.5164 14.213 99.6478 14.5331 99.6526L40.6726 99.9994H40.6879C41.0055 99.9994 41.3103 99.8744 41.5363 99.6513C41.7623 99.4282 41.8914 99.1251 41.8956 98.8076L42.0893 84.206C42.0932 83.8857 41.9699 83.577 41.7465 83.3475C41.523 83.1181 41.2177 82.9866 40.8974 82.982L39.0371 82.9582L41.0524 71.2556C41.2789 70.0145 41.2108 68.7374 40.8536 67.5274C40.4963 66.3174 39.86 65.2082 38.9957 64.2891L21.222 45.0021C20.6773 44.411 20.0168 43.9382 19.2817 43.613C18.5466 43.2877 17.7525 43.117 16.9487 43.1115L17.3998 27.8271C17.5004 24.3791 15.7684 21.7483 12.9775 21.0981C12.3115 20.8757 11.6058 20.7974 10.9072 20.8685C10.2086 20.9395 9.53305 21.1582 8.9254 21.5101C8.16935 21.9359 7.51174 22.5165 6.9956 23.214C6.47945 23.9115 6.11642 24.7101 5.93025 25.5576L0.14144 52.606C-0.041756 53.4155 -0.0470552 54.2551 0.125908 55.0668C0.298871 55.8786 0.645975 56.6431 1.14325 57.3076L16.5435 78.3894ZM92.967 23.6214C92.6486 23.4313 92.2927 23.3126 91.9239 23.2735C91.5551 23.2345 91.1822 23.2761 90.8311 23.3954C90.7811 23.4135 90.73 23.4284 90.6781 23.4401C88.6794 23.8759 88.025 25.9546 88.0771 27.7551L88.5463 43.6082C89.1286 43.8643 89.6652 44.2136 90.1351 44.6424L90.3384 44.8266C91.4283 45.8299 92.1017 47.2058 92.2253 48.682C92.349 50.1582 91.9137 51.627 91.0058 52.7976L78.6351 68.6157C78.5393 68.7457 78.4184 68.8551 78.2795 68.9376C78.1407 69.02 77.9867 69.0737 77.8268 69.0956C77.6668 69.1175 77.504 69.1071 77.3481 69.065C77.1922 69.0229 77.0464 68.95 76.9192 68.8505C76.792 68.7511 76.686 68.6271 76.6075 68.486C76.529 68.3449 76.4797 68.1894 76.4623 68.0289C76.4449 67.8684 76.46 67.706 76.5064 67.5513C76.5529 67.3967 76.63 67.253 76.733 67.1286L89.1039 51.3097C89.6477 50.6231 89.9097 49.7552 89.8365 48.8824C89.7633 48.0096 89.3604 47.1974 88.7097 46.611L88.5064 46.4258C87.828 45.8097 86.9337 45.4863 86.018 45.5261C85.1024 45.5659 84.2395 45.9656 83.617 46.6382L65.8433 65.9255C65.2278 66.5714 64.775 67.3547 64.5225 68.2104C64.27 69.0662 64.225 69.9698 64.3913 70.8464L66.4709 82.9258L84.2585 82.6901L83.908 79.4454C83.8018 78.5647 84.0385 77.6768 84.5691 76.9659L99.9695 55.8841C100.265 55.4937 100.472 55.043 100.574 54.564C100.676 54.085 100.672 53.5894 100.561 53.1122L94.7721 26.0618C94.6567 25.5522 94.4366 25.0721 94.1259 24.652C93.8152 24.2319 93.4205 23.881 92.967 23.6214ZM87.2907 97.2538L63.568 97.567L63.407 85.3815L87.1288 85.0671L87.2911 97.2538H87.2907ZM90.0875 21.0973C87.2955 21.7469 85.5624 24.3783 85.6651 27.8263L86.1162 43.1106C85.3123 43.1163 84.5182 43.2871 83.7831 43.6123C83.048 43.9376 82.3875 44.4103 81.8426 45.0013L64.069 64.2883C63.2041 65.2072 62.5673 66.3165 62.2098 67.5267C61.8523 68.7369 61.7841 70.0142 62.0108 71.2556L64.0259 82.9588L62.1656 82.9826C61.8455 82.9876 61.5404 83.1192 61.3171 83.3486C61.0937 83.578 60.9703 83.8865 60.9738 84.2066L61.1676 98.8082C61.1718 99.1257 61.3009 99.4288 61.5269 99.6519C61.753 99.875 62.0578 100 62.3754 100H62.3925L88.531 99.6534C88.8511 99.6487 89.1562 99.5173 89.3796 99.288C89.603 99.0587 89.7264 98.7503 89.7228 98.4302L89.5272 83.8286C89.5253 83.67 89.4922 83.5133 89.4298 83.3675C89.3674 83.2217 89.2769 83.0896 89.1634 82.9788C89.0505 82.867 88.9162 82.7791 88.7685 82.7203C88.6208 82.6615 88.4628 82.633 88.3039 82.6366L86.685 82.6567L86.31 79.1863C86.2894 79.0463 86.2973 78.9036 86.3332 78.7667C86.3691 78.6298 86.4323 78.5015 86.5189 78.3896L101.92 57.3076C102.417 56.6431 102.764 55.8786 102.937 55.0669C103.111 54.2552 103.106 53.4156 102.923 52.606L97.1328 25.5568C96.9467 24.7094 96.5838 23.9109 96.0678 23.2134C95.5519 22.516 94.8945 21.9353 94.1387 21.5093C93.531 21.1575 92.8555 20.9388 92.157 20.8677C91.4584 20.7967 90.7528 20.8749 90.0867 21.0973H90.0875Z" fill="#CC1C19"/>
</svg>
