<svg width="99" height="100" viewBox="0 0 99 100" fill="none" xmlns="http://www.w3.org/2000/svg">
<path d="M33.2321 45.7627C32.4483 45.9195 31.8213 46.5465 31.8213 47.3303V52.8167C31.8213 53.6005 32.4483 54.2275 33.2321 54.3843L36.9942 55.0113C37.151 55.3248 37.3077 55.6383 37.3077 55.9519L35.1132 58.9302C34.6429 59.5572 34.6429 60.4978 35.2699 60.968L39.1888 64.8869C39.6591 65.5139 40.5996 65.5139 41.2266 65.0437L44.205 62.8491C44.5185 63.0059 44.832 63.1626 45.1455 63.1626L45.7725 66.9247C45.9293 67.7085 46.5563 68.3355 47.3401 68.3355H52.8265C53.6103 68.3355 54.2373 67.7085 54.3941 66.9247L55.0211 63.1626C55.3346 63.0059 55.6481 62.8491 55.9616 62.8491L58.94 65.0437C59.567 65.5139 60.5075 65.5139 60.9778 64.8869L64.8967 60.968C65.5237 60.341 65.5237 59.5572 65.0535 58.9302L62.8589 55.9519C63.0156 55.6383 63.1724 55.3248 63.1724 55.0113L66.9345 54.3843C67.7183 54.2275 68.3453 53.6005 68.3453 52.8167V47.3303C68.3453 46.5465 67.7183 45.9195 66.9345 45.7627L63.1724 45.1357C63.0156 44.8222 62.8589 44.5087 62.8589 44.1952L65.0535 41.2168C65.5237 40.5898 65.5237 39.6493 64.8967 39.179L60.9778 35.2601C60.5075 34.6331 59.567 34.6331 58.94 35.1034L55.6481 37.4547C55.3346 37.2979 55.0211 37.1412 54.7076 37.1412L54.0806 33.3791C53.9238 32.5953 53.2968 31.9683 52.513 31.9683H47.0266C46.2428 31.9683 45.6158 32.5953 45.459 33.3791L44.832 37.1412C44.5185 37.2979 44.205 37.4547 43.8915 37.4547L40.9131 35.2601C40.2861 34.7899 39.3456 34.7899 38.8753 35.4169L35.2699 39.179C34.6429 39.806 34.6429 40.5898 35.1132 41.2168L37.3077 44.1952C37.151 44.5087 36.9942 44.8222 36.9942 45.1357L33.2321 45.7627ZM38.405 48.1141C39.032 47.9573 39.5023 47.6438 39.6591 47.0168C39.8158 46.233 40.1293 45.606 40.5996 44.8222C40.9131 44.3519 40.9131 43.5682 40.4428 43.0979L38.405 40.4331L40.4428 38.3952L43.1077 40.4331C43.578 40.7466 44.205 40.9033 44.832 40.5898C45.459 40.2763 46.2428 39.9628 47.0266 39.6493C47.6536 39.4925 48.1239 39.0223 48.1239 38.3952L48.5941 35.1034H51.4157L51.886 38.3952C52.0427 39.0223 52.3563 39.4925 52.9833 39.6493C53.7671 39.806 54.5508 40.1195 55.1779 40.5898C55.6481 40.9033 56.4319 40.9033 56.9022 40.4331L59.567 38.3952L61.6048 40.4331L59.567 43.0979C59.2535 43.5682 59.0967 44.1952 59.4103 44.8222C59.7238 45.4492 60.0373 46.233 60.3508 47.0168C60.5075 47.6438 60.9778 48.1141 61.6048 48.1141L64.8967 48.5843V51.4059L61.6048 51.8762C60.9778 52.033 60.5075 52.3465 60.3508 52.9735C60.194 53.7573 59.8805 54.3843 59.4103 55.1681C59.0967 55.6383 59.0967 56.4221 59.567 56.8924L61.6048 59.5572L59.567 61.5951L56.9022 59.5572C56.4319 59.2437 55.8049 59.087 55.1779 59.4005C54.5508 59.714 53.7671 60.0275 52.9833 60.341C52.3563 60.4978 51.886 60.968 51.886 61.5951L51.4157 64.8869H48.5941L48.1239 61.5951C47.9671 60.968 47.6536 60.4978 47.0266 60.341C46.2428 60.1842 45.6158 59.8707 44.832 59.4005C44.3617 59.087 43.578 59.087 43.1077 59.5572L40.4428 61.5951L38.405 59.5572L40.4428 56.8924C40.7564 56.4221 40.9131 55.7951 40.5996 55.1681C40.2861 54.5411 39.9726 53.7573 39.6591 52.9735C39.5023 52.3465 39.032 51.8762 38.405 51.8762L35.1132 51.4059V48.5843L38.405 48.1141Z" fill="#CC1C19"/>
<path d="M50.0049 58.6166C54.7075 58.6166 58.6264 54.6978 58.6264 49.9951C58.6264 45.2924 54.7075 41.3735 50.0049 41.3735C45.3022 41.3735 41.2266 45.2924 41.2266 49.9951C41.2266 54.6978 45.1455 58.6166 50.0049 58.6166ZM50.0049 44.5086C52.9832 44.5086 55.4913 47.0167 55.4913 49.9951C55.4913 52.9734 52.9832 55.4815 50.0049 55.4815C47.0265 55.4815 44.5184 52.9734 44.5184 49.9951C44.5184 47.0167 46.8698 44.5086 50.0049 44.5086Z" fill="#CC1C19"/>
<path d="M91.702 77.5839L67.8751 85.8919C66.3076 86.519 64.5833 86.519 63.0157 86.2054L55.4914 84.4811C57.8428 83.0703 59.8806 80.8758 60.8211 78.0542C60.9779 77.5839 60.9779 77.1136 60.6644 76.8001C60.5076 76.4866 60.0374 76.1731 59.7238 76.0163L30.8808 69.4326C30.5673 69.2759 30.0971 69.4326 29.7835 69.5894L12.2269 79.1514V78.2109C12.2269 77.2704 11.4432 76.6434 10.6594 76.6434L1.56755 76.8001C0.783777 76.8001 0 77.5839 0 78.3677L0.313511 98.2756C0.313511 99.0594 1.09729 99.8432 1.88107 99.8432L10.9729 99.6864C11.9134 99.6864 12.5404 98.9026 12.5404 98.1189V95.6108H31.9781L63.3292 99.8432C63.7995 99.8432 64.4265 99.9999 64.8968 99.9999C66.6211 99.9999 68.3454 99.6864 69.9129 98.9026L95.6208 86.9892C98.4425 85.7352 99.383 82.2866 97.8154 79.6217C96.4046 77.5839 93.8965 76.8001 91.702 77.5839ZM3.44862 96.8648L3.13511 79.9352L9.09182 79.7785C9.09182 84.0109 9.24857 92.3189 9.40533 96.5513L3.44862 96.8648ZM94.2101 84.1676L68.5022 96.081C66.9346 96.8648 65.2103 97.0216 63.6427 96.8648C30.4106 92.4757 32.1349 92.6324 31.9781 92.6324H12.3837L12.2269 82.7568L30.5673 72.5677L57.059 78.5244C55.1779 81.6595 51.4158 83.3838 47.8104 82.6001L35.1132 79.7785C34.3295 79.6217 33.3889 80.092 33.2322 81.0325C33.0754 81.973 33.5457 82.7568 34.4862 82.9136C37.3078 83.5406 24.1403 80.5622 62.5454 89.3405C64.74 89.8108 67.0913 89.6541 69.1292 89.027L92.956 80.719C93.8965 80.4055 94.8371 80.719 95.3073 81.5028C95.7776 82.2866 95.3073 83.6974 94.2101 84.1676Z" fill="#CC1C19"/>
<path d="M98.2854 2.18456C97.9719 1.87105 97.6584 1.71429 97.1881 1.71429L88.0963 1.55754C87.1558 1.55754 86.5287 2.18456 86.5287 3.12509V5.63318L67.0911 5.16291L35.8967 0.146736C33.7021 -0.166775 31.3508 -0.0100193 29.1562 0.930514L3.29157 12.2169C0.469971 13.471 -0.627317 16.9196 0.940238 19.5844C2.19428 21.6222 4.70237 22.5628 6.89695 21.779L30.8805 14.098C32.4481 13.6277 34.1724 13.471 35.74 13.9412L43.2642 15.8223C40.7561 17.2331 38.8751 19.4277 37.9345 22.0925C37.7778 22.5628 37.7778 23.033 38.0913 23.3465C38.248 23.6601 38.7183 23.9736 39.0318 24.1303L67.7181 31.4978H68.0316C68.3451 31.4978 68.5019 31.4978 68.8154 31.3411L86.372 22.2493V23.1898C86.372 24.1303 86.999 24.7573 87.9395 24.7573L97.0314 24.9141C97.8151 24.9141 98.5989 24.2871 98.5989 23.3465L98.7557 3.4386C98.7557 2.96833 98.5989 2.49807 98.2854 2.18456ZM67.8748 28.3627L41.5399 21.6222C46.5561 13.471 56.5884 20.2114 63.6424 20.9952C64.4262 21.152 65.3668 20.6817 65.5235 19.8979C65.6803 19.1142 65.21 18.1736 64.4262 18.0169C61.6046 17.2331 74.7721 20.6817 36.5237 10.8061C34.3292 10.1791 31.9778 10.3358 29.94 10.9629L5.95641 18.6439C5.01588 18.9574 4.07535 18.6439 3.60508 17.7034C2.97806 16.6061 3.44833 15.352 4.54561 14.8818L30.567 3.75211C32.1346 3.12509 33.7021 2.96833 35.4264 3.12509L66.7775 8.14127C66.9343 8.14127 65.837 8.14127 86.5287 8.76829L86.372 18.6439L67.8748 28.3627ZM95.4638 21.6222H89.5071C89.5071 17.7034 89.6639 9.23855 89.6639 4.8494H95.6206L95.4638 21.6222Z" fill="#CC1C19"/>
<path d="M65.8377 69.9028C66.4647 70.5298 67.4052 70.5298 68.0322 69.9028C77.4376 60.811 79.4754 46.5462 72.8917 35.2599C72.4214 34.4761 71.4809 34.3193 70.6971 34.6328C69.9133 35.1031 69.7566 36.0436 70.0701 36.8274C75.87 46.8598 74.1457 59.557 65.6809 67.7082C65.2106 68.3353 65.2106 69.2758 65.8377 69.9028Z" fill="#CC1C19"/>
<path d="M31.9786 31.0274C22.73 40.276 21.0057 54.5407 27.7462 65.8271C28.2164 66.6109 29.157 66.7677 29.9407 66.2974C30.7245 65.8271 30.8813 64.8866 30.411 64.1028C24.4543 54.0705 25.8651 41.3733 34.1731 33.222C34.8002 32.5949 34.8002 31.6544 34.1731 31.0274C33.5461 30.4004 32.6056 30.4004 31.9786 31.0274Z" fill="#CC1C19"/>
</svg>
