<svg width="121" height="100" viewBox="0 0 121 100" fill="none" xmlns="http://www.w3.org/2000/svg">
<g clip-path="url(#clip0_716_8749)">
<path d="M82.4899 45.7223C65.7658 45.7279 49.039 45.7335 32.3149 45.7363C31.9511 45.7363 31.5593 45.8258 31.2627 45.5096C34.5174 45.4928 37.7721 45.462 41.0268 45.462C54.3758 45.4564 67.7276 45.4564 81.0766 45.4732C81.5439 45.4732 82.1009 45.1989 82.4899 45.7223Z" fill="#CC1C19"/>
<path d="M39.0651 0.94873C39.0651 12.8145 39.0651 24.6775 39.0651 36.5433C38.6229 36.2354 38.8244 35.7737 38.8244 35.3875C38.8132 24.2941 38.8132 13.2007 38.8244 2.10452C38.8244 1.71833 38.6229 1.25657 39.0623 0.94873H39.0651Z" fill="#CC1C19"/>
<path d="M81.0878 36.2604C81.0878 24.5822 81.0878 12.9039 81.0878 1.22559C81.5243 1.53622 81.3256 1.99518 81.3256 2.38418C81.3368 13.2901 81.3368 24.1988 81.3256 35.1046C81.3256 35.4908 81.5271 35.9526 81.085 36.2604H81.0878Z" fill="#CC1C19"/>
<path d="M56.1582 77.5784C56.5052 77.2369 56.9474 77.3517 57.3532 77.3517C65.6033 77.3461 73.8533 77.3461 82.1034 77.3517C82.5092 77.3517 82.9514 77.2342 83.2984 77.5812C74.2535 77.5812 65.2059 77.5812 56.161 77.5812L56.1582 77.5784Z" fill="#CC1C19"/>
<path d="M112.114 30.5905H109.867C110.617 30.2211 111.364 30.2211 112.114 30.5905Z" fill="#CC1C19"/>
<path d="M119.915 40.6936C119.915 39.9548 119.912 39.2188 119.909 38.48C120.391 39.216 120.382 39.9548 119.915 40.6936Z" fill="#CC1C19"/>
<path d="M119.908 38.4798C119.206 35.8072 118.212 33.3725 115.565 31.9452C114.451 31.3463 113.234 31.1169 112.114 30.5907C111.364 30.4424 110.617 30.4424 109.867 30.5907C107.449 31.0497 105.306 32.032 103.66 33.921C102.577 35.1635 101.519 36.4257 100.45 37.6822C98.3316 40.1701 96.2299 42.672 94.0918 45.1403C92.6142 46.8474 91.0862 48.5069 89.5582 50.2169C87.7811 47.659 85.6403 45.8875 82.4919 45.7252C82.0022 45.5013 81.4817 45.6133 80.9751 45.6133C64.9591 45.6077 48.9431 45.6077 32.9243 45.6021C32.3702 45.6021 31.8077 45.6944 31.262 45.5125C30.7246 45.2411 30.2993 45.6832 29.8179 45.7672C26.3281 46.3605 23.121 47.6198 20.566 50.1581C13.9894 56.6899 7.46043 63.2692 0.878275 69.7954C-0.101212 70.7665 -0.481812 71.7712 0.909059 73.1508C2.72531 74.9503 4.56115 76.7302 6.369 78.538C8.79533 80.9671 11.1881 83.4327 13.6256 85.8534C15.7525 87.9663 18.0081 89.9532 20.0426 92.1501C22.343 94.6352 24.8281 96.9244 27.1593 99.3731C27.9345 100.185 28.7125 100.263 29.6808 99.3283C31.4131 97.6548 33.0782 95.9225 34.7685 94.2126C38.4822 90.4598 42.4253 86.928 46.0214 83.0716C48.8423 80.0492 52.0635 78.0958 56.1549 77.5865C56.4655 77.4466 56.793 77.4914 57.1176 77.4914C65.5216 77.4914 73.9284 77.4914 82.3324 77.4914C82.6542 77.4914 82.9845 77.4466 83.2923 77.5865C83.964 77.8776 84.5516 77.4382 85.1589 77.3262C89.0573 76.6014 92.3008 74.5921 95.0461 71.8355C96.7505 70.1228 98.1973 68.1555 99.7841 66.3224C101.768 64.0332 103.789 61.7748 105.77 59.4828C108.616 56.1945 111.482 52.9202 114.264 49.576C116.519 46.867 119.463 44.5694 119.908 40.699C120.169 39.9602 120.18 39.2214 119.903 38.4854L119.908 38.4798ZM37.9532 86.3011C35.3758 88.7611 32.8207 91.2434 30.4196 93.8796C30.3356 93.9719 30.2405 94.0531 30.1453 94.1314C28.9811 95.1109 27.8412 95.0428 26.7255 93.9272C19.2115 86.4159 11.7002 78.9018 4.11618 71.3206C7.3149 68.1275 10.4772 65.0295 13.564 61.856C14.3784 61.0164 14.843 61.0248 15.6685 61.856C23.1182 69.3672 30.5931 76.8589 38.124 84.289C39.0839 85.2377 38.5885 85.6967 37.9561 86.3011H37.9532ZM114.986 43.5591C110.891 48.3222 106.792 53.0798 102.675 57.8205C99.9632 60.9436 97.159 63.9912 94.5032 67.1592C92.4855 69.5659 90.367 71.8047 87.4173 73.0613C86.0097 73.6602 84.5488 74.08 83.0153 74.2171C82.657 74.0716 82.282 74.1275 81.9126 74.1275C73.601 74.1247 65.2893 74.1247 56.9777 74.1275C56.6111 74.1275 56.2333 74.0632 55.8779 74.2283C53.4991 74.6984 51.1231 75.1126 48.9403 76.302C46.3461 77.7152 44.3115 79.7722 42.3218 81.8711C41.6389 82.5931 41.1408 82.5959 40.5391 81.9886C38.7368 80.1752 36.9542 78.3393 35.1743 76.5035C32.9915 74.2535 30.7778 72.0314 28.5558 69.8318C26.1798 67.481 23.8374 65.0883 21.4167 62.7795C20.121 61.5453 18.9876 60.1405 17.6527 58.9567C17.1881 58.5425 17.1741 58.3046 17.496 57.9996C20.3533 55.2906 22.7236 51.9967 26.4065 50.2672C27.9121 49.5592 29.5157 49.0359 31.2312 49.0695C31.6314 48.8875 32.0567 48.9659 32.4737 48.9659C48.6381 48.9603 64.8024 48.9603 80.9695 48.9659C81.3837 48.9659 81.8091 48.8847 82.2093 49.0695C85.2877 49.3549 86.8268 51.5154 87.1543 53.8465C87.5069 56.3568 85.8698 58.7384 83.2307 59.7263C82.9817 59.8186 82.7242 59.8886 82.4723 59.9669C82.1645 59.8186 81.8343 59.8662 81.5124 59.8662C72.9097 59.8662 64.307 59.8662 55.7043 59.8662C55.3825 59.8662 55.0523 59.8214 54.7417 59.9641C53.8209 60.1153 53.3984 60.8653 53.4207 61.5873C53.4487 62.4632 54.112 63.0901 55.0243 63.3224C55.5224 63.1489 56.0402 63.2356 56.5467 63.2328C64.7828 63.2272 73.0161 63.2328 81.2522 63.2244C81.7559 63.2244 82.2764 63.3308 82.7662 63.1125C86.1468 63.202 90.1123 59.2869 90.2858 56.0098C90.3502 54.7785 90.9071 53.7794 91.6963 52.8867C94.618 49.576 97.5676 46.2905 100.467 42.9603C102.51 40.6123 104.39 38.116 106.526 35.8576C108.801 33.4536 112.081 33.4117 114.362 35.3007C117.3 37.7354 117.241 40.9369 114.983 43.5619L114.986 43.5591Z" fill="#CC1C19"/>
<path d="M82.7691 63.1096C82.6068 63.4287 82.3017 63.3587 82.0359 63.3587C73.033 63.3475 64.0301 63.3335 55.0244 63.3195C55.2623 63.0033 55.6121 63.0872 55.9255 63.0872C64.8725 63.0928 73.8194 63.1012 82.7663 63.1096H82.7691Z" fill="#CC1C19"/>
<path d="M42.4647 33.9436C51.504 33.9604 60.5432 33.98 69.5853 33.9884C72.2859 33.9884 74.9892 33.9604 77.6898 33.9436C77.785 33.8457 77.8745 33.8541 77.9613 33.9548C77.5807 34.4809 77.021 34.2598 76.5424 34.2598C65.5638 34.2738 54.5879 34.2738 43.6093 34.2598C43.1307 34.2598 42.571 34.4781 42.1904 33.9548C42.2772 33.8541 42.3667 33.8485 42.4619 33.9436H42.4647Z" fill="#CC1C19"/>
<path d="M42.4648 33.9435L42.3305 33.9771L42.1934 33.9547C42.1934 23.8156 42.1934 13.6793 42.1934 3.54023C42.2885 3.4003 42.3781 3.4031 42.4648 3.54583C42.4648 13.6765 42.4648 23.81 42.4648 33.9407V33.9435Z" fill="#CC1C19"/>
<path d="M66.2558 14.9779C66.155 15.0814 66.0515 15.1878 65.9507 15.2913C62.03 15.4452 58.1092 15.4396 54.1885 15.2969L54.2193 15.2045C54.5607 14.8547 55 14.9751 55.4058 14.9751C59.0243 14.9695 62.64 14.9751 66.2585 14.9807L66.2558 14.9779Z" fill="#CC1C19"/>
<path d="M67.3722 3.52344C67.3638 6.58503 67.3694 9.64663 67.3414 12.7054C67.3358 13.1896 67.5485 13.7325 67.1007 14.1495C67.0923 10.9256 67.0755 7.70165 67.0839 4.47774C67.0839 4.15031 66.8908 3.71933 67.375 3.52344H67.3722Z" fill="#CC1C19"/>
<path d="M77.9613 3.54037L77.8241 3.51518L77.687 3.54876C74.2392 3.52917 70.7914 3.50958 67.3408 3.48999C67.5731 3.19055 67.9089 3.22413 68.228 3.22413C71.1412 3.22413 74.0545 3.22133 76.9678 3.22413C77.326 3.22413 77.7234 3.14018 77.9585 3.54037H77.9613Z" fill="#CC1C19"/>
<path d="M42.4648 3.54867L42.3305 3.51509L42.1934 3.54028C42.3865 3.19326 42.7251 3.22124 43.0469 3.22124C46.0525 3.22124 49.0582 3.22124 52.0638 3.22124C52.3436 3.22124 52.6207 3.23524 52.8138 3.4871C49.366 3.50669 45.9182 3.52628 42.4704 3.54867H42.4648Z" fill="#CC1C19"/>
<path d="M63.6978 3.39453C64.2099 3.89827 64.0028 4.54473 63.9777 5.11843C63.8825 7.28169 64.2771 9.46175 63.7678 11.6082C63.7034 11.5523 63.639 11.4963 63.5719 11.4403C63.043 8.91044 63.3032 6.36657 63.418 3.82271C63.4739 3.65479 63.5691 3.51207 63.7006 3.39453H63.6978Z" fill="#CC1C19"/>
<path d="M56.3877 11.6082C56.049 8.86846 55.9399 6.1287 56.452 3.39453C56.5808 3.51487 56.6731 3.65759 56.7291 3.82271C56.8522 6.36378 57.1097 8.91044 56.5836 11.4403C56.5192 11.4963 56.452 11.5523 56.3877 11.6082Z" fill="#CC1C19"/>
<path d="M81.1915 35.1608C81.1943 24.2157 81.1943 13.2734 81.1915 2.32836C81.1915 1.95895 81.2587 1.58115 81.0908 1.22573C80.8613 0.702409 80.4807 0.330204 79.9574 0.0979259C79.5991 -0.0475978 79.2213 0.00837287 78.8519 0.00837287C66.2417 0.00557434 53.6316 0.00557434 41.0214 0.00837287C40.652 0.00837287 40.2742 -0.0475978 39.9159 0.0951274C39.6669 0.41416 39.0148 0.327406 39.0652 0.943083C38.8973 1.2985 38.9644 1.6763 38.9644 2.04571C38.9616 13.1755 38.9616 24.3052 38.9644 35.435C38.9644 35.8044 38.8973 36.1822 39.068 36.5348C39.3646 36.935 39.6417 37.3604 40.2154 37.3884C40.5288 37.5171 40.8562 37.4751 41.1809 37.4751C53.7799 37.4751 66.3789 37.4751 78.9779 37.4751C79.3025 37.4751 79.6299 37.5171 79.9434 37.3884C80.7186 37.408 80.7465 36.672 81.0908 36.255C81.2615 35.8996 81.1943 35.5218 81.1943 35.1552L81.1915 35.1608ZM63.6951 3.54292C63.6783 6.23791 63.6587 8.9301 63.6419 11.6251H56.5112L56.4581 3.54292C58.8704 3.54292 61.2827 3.54292 63.6951 3.54292ZM77.8333 33.0395C77.8333 33.3613 77.8808 33.6915 77.7409 34.0022C77.4415 34.1841 77.1085 34.1225 76.7866 34.1225C65.6149 34.1225 54.4431 34.1225 43.2714 34.1225C42.9943 34.1225 42.7117 34.1505 42.4458 34.0329C42.2583 33.7363 42.3199 33.4005 42.3199 33.0814C42.3199 23.4545 42.3199 13.8275 42.3199 4.20058C42.3199 3.9683 42.3199 3.73602 42.3926 3.51214C44.4216 3.18751 46.4673 3.40299 48.5046 3.38061C49.9375 3.36381 51.3815 3.22109 52.8116 3.48695L52.7836 3.52333C53.139 5.07372 52.8648 6.6437 52.9375 8.20248C53.0299 10.1838 52.792 12.1708 53.0579 14.1494C53.1754 14.7986 53.4608 15.2632 54.222 15.2016C54.3032 15.21 54.3872 15.2212 54.4683 15.2296C58.1764 15.2548 61.8816 15.266 65.5897 15.224C65.8276 15.182 66.057 15.1149 66.2613 14.9749C66.6307 14.7902 66.8966 14.4964 67.1037 14.1466C67.364 11.1018 67.1429 8.05416 67.2268 5.00655C67.2408 4.51121 67.0757 3.98789 67.3779 3.51773L67.35 3.48135C70.8146 3.27706 74.2791 3.28266 77.7437 3.48135C77.8892 3.78919 77.8417 4.11942 77.8417 4.44405C77.8417 13.9759 77.8417 23.5049 77.8417 33.0367L77.8333 33.0395Z" fill="#CC1C19"/>
</g>
<defs>
<clipPath id="clip0_716_8749">
<rect width="120.27" height="100" fill="white"/>
</clipPath>
</defs>
</svg>
