<svg width="34" height="38" viewBox="0 0 34 38" fill="none" xmlns="http://www.w3.org/2000/svg">
<path d="M0.93842 28.8847L16.4565 37.8441C16.5691 37.9091 16.6949 37.9417 16.8207 37.9417C16.9465 37.9417 17.0722 37.9091 17.1849 37.8441L32.7029 28.8847C32.9283 28.7546 33.0671 28.5142 33.0671 28.2539V10.3352C33.0671 10.0749 32.9283 9.83448 32.7029 9.70439L17.1849 0.745031C16.9595 0.614938 16.6818 0.614938 16.4565 0.745031L0.93842 9.70439C0.713052 9.83448 0.574219 10.0749 0.574219 10.3352V28.2539C0.574219 28.5142 0.713052 28.7546 0.93842 28.8847ZM2.03102 12.3161L16.0923 20.4343V35.9517L2.03102 27.8334V12.3161ZM6.25802 8.31525L20.9423 16.7931L16.8207 19.1728L2.1365 10.6949L6.25802 8.31525ZM11.6482 5.20322L26.3324 13.6812L22.399 15.9521L7.71483 7.47416L11.6482 5.20322ZM23.1274 17.2137L27.0608 14.9428V20.8515L25.7819 19.9254C25.617 19.806 25.4098 19.7612 25.2103 19.8014C25.0108 19.8417 24.8373 19.9637 24.7318 20.1377L23.1275 22.784L23.1274 17.2137ZM17.5491 35.9517V20.4343L21.6706 18.0548V25.3904C21.6706 25.7172 21.8882 26.0039 22.203 26.0919C22.268 26.1101 22.3339 26.1189 22.399 26.1189C22.649 26.1189 22.8875 25.9897 23.0219 25.7681L25.5677 21.5691L27.3619 22.8684C27.5835 23.0289 27.8766 23.0516 28.1203 22.9272C28.3641 22.8028 28.5175 22.5522 28.5175 22.2784V14.1017L31.6102 12.3161V27.8333L17.5491 35.9517ZM16.8207 2.21691L31.5048 10.6949L27.7892 12.8401L13.105 4.36213L16.8207 2.21691Z" fill="white"/>
</svg>
