<svg width="65" height="66" viewBox="0 0 65 66" fill="none" xmlns="http://www.w3.org/2000/svg">
<path d="M48.211 28.9406C48.211 24.5956 46.394 20.3953 43.226 17.4179C40.0137 14.3986 35.8023 12.883 31.3932 13.1615C23.4071 13.6574 16.9105 20.3138 16.602 28.3149C16.4374 32.5825 17.9507 36.6435 20.8632 39.7507C23.0363 42.07 24.0807 43.4448 24.3543 45.8613C22.6207 46.2959 21.3275 47.8551 21.3275 49.7214C21.3275 51.541 22.5584 53.063 24.2256 53.5422C23.6469 54.2349 23.2845 55.1142 23.2845 56.0851C23.2845 57.9886 24.6265 59.58 26.4129 59.9766C26.5927 63.1275 29.205 65.6374 32.4002 65.6374C35.5953 65.6374 38.2076 63.1275 38.3874 59.9766C40.1738 59.58 41.5158 57.9886 41.5158 56.0851C41.5158 55.1142 41.1534 54.2349 40.5747 53.5422C42.2419 53.063 43.4728 51.541 43.4728 49.7214C43.4728 47.8555 42.1801 46.2964 40.447 45.8616C40.7236 43.4634 41.7793 42.0705 43.9767 39.7087C46.7073 36.7749 48.211 32.9511 48.211 28.9406ZM32.4002 64.0174C30.1326 64.0174 28.2613 62.2864 28.038 60.0766H36.7623C36.539 62.2864 34.6677 64.0174 32.4002 64.0174ZM37.5236 58.4566H27.2767C25.9684 58.4566 24.9045 57.3927 24.9045 56.0851C24.9045 54.7776 25.9684 53.7137 27.2767 53.7137H37.5236C38.8319 53.7137 39.8958 54.7776 39.8958 56.0851C39.8958 57.3927 38.8319 58.4566 37.5236 58.4566ZM41.8528 49.7214C41.8528 51.0297 40.7889 52.0937 39.4813 52.0937H37.5236H27.2767H25.319C24.0114 52.0937 22.9475 51.0297 22.9475 49.7214C22.9475 48.4139 24.0114 47.3499 25.319 47.3499H39.4813C40.7889 47.3499 41.8528 48.4139 41.8528 49.7214ZM28.9134 33.5681H26.4217C25.0477 33.5681 23.93 32.4504 23.93 31.0764C23.93 29.7024 25.0477 28.5847 26.4217 28.5847C27.7956 28.5847 28.9134 29.7024 28.9134 31.0764V33.5681ZM30.5334 45.7299V35.1881H34.2669V45.7299H30.5334ZM38.8364 45.7299H35.8869V35.1881H38.3786C40.6457 35.1881 42.4904 33.3434 42.4904 31.0764C42.4904 28.8093 40.6457 26.9647 38.3786 26.9647C36.1116 26.9647 34.2669 28.8093 34.2669 31.0764V33.5681H30.5334V31.0764C30.5334 28.8093 28.6887 26.9647 26.4217 26.9647C24.1546 26.9647 22.3099 28.8093 22.3099 31.0764C22.3099 33.3434 24.1546 35.1881 26.4217 35.1881H28.9134V45.7299H25.9648C25.6311 42.7048 24.2435 40.9887 22.045 38.6432C19.4307 35.8541 18.0725 32.2083 18.2204 28.3774C18.4973 21.1966 24.327 15.2228 31.4929 14.7783C35.463 14.5331 39.2337 15.8889 42.117 18.5989C45.0018 21.3105 46.591 24.9832 46.591 28.9406C46.591 32.5398 45.2415 35.972 42.7901 38.6053C40.5725 40.989 39.173 42.7274 38.8364 45.7299ZM35.8869 33.5681V31.0764C35.8869 29.7024 37.0047 28.5847 38.3786 28.5847C39.7526 28.5847 40.8703 29.7024 40.8703 31.0764C40.8703 32.4504 39.7526 33.5681 38.3786 33.5681H35.8869Z" fill="white"/>
<path d="M31.5898 1.6474V8.8757C31.5898 9.32342 31.9521 9.6857 32.3998 9.6857C32.8476 9.6857 33.2098 9.32342 33.2098 8.8757V1.6474C33.2098 1.19969 32.8476 0.837402 32.3998 0.837402C31.9521 0.837402 31.5898 1.19969 31.5898 1.6474Z" fill="white"/>
<path d="M20.2202 12.9495C20.3579 12.9495 20.4971 12.9147 20.6244 12.8411C21.012 12.6173 21.1449 12.1221 20.9211 11.7345L17.3069 5.47439C17.0823 5.086 16.5863 4.9539 16.2003 5.17776C15.8127 5.40161 15.6798 5.89679 15.9037 6.28439L19.5178 12.5445C19.6681 12.8047 19.9402 12.9495 20.2202 12.9495Z" fill="white"/>
<path d="M11.7069 20.3547L5.44681 16.7406C5.06001 16.5167 4.56404 16.6496 4.34018 17.0372C4.11632 17.4248 4.24922 17.92 4.63681 18.1438L10.8969 21.758C11.0243 21.8315 11.1635 21.8664 11.3011 21.8664C11.5811 21.8664 11.8533 21.7208 12.0035 21.4614C12.2274 21.0738 12.0945 20.5786 11.7069 20.3547Z" fill="white"/>
<path d="M0.81 34.0472H8.03831C8.48602 34.0472 8.84831 33.685 8.84831 33.2372C8.84831 32.7895 8.48602 32.4272 8.03831 32.4272H0.81C0.362285 32.4272 0 32.7895 0 33.2372C0 33.685 0.362285 34.0472 0.81 34.0472Z" fill="white"/>
<path d="M5.0426 49.8425C5.18024 49.8425 5.31946 49.8077 5.44681 49.7341L11.7069 46.1199C12.0945 45.8961 12.2274 45.4009 12.0035 45.0133C11.7797 44.6249 11.2829 44.492 10.8969 44.7167L4.63681 48.3308C4.24922 48.5547 4.11632 49.0499 4.34018 49.4375C4.49048 49.6977 4.76258 49.8425 5.0426 49.8425Z" fill="white"/>
<path d="M53.0929 46.1198L59.353 49.7339C59.4803 49.8075 59.6195 49.8423 59.7572 49.8423C60.0372 49.8423 60.3093 49.6967 60.4596 49.4373C60.6835 49.0497 60.5506 48.5545 60.163 48.3307L53.9029 44.7165C53.5161 44.4919 53.0201 44.6255 52.7962 45.0131C52.5724 45.4007 52.7053 45.8959 53.0929 46.1198Z" fill="white"/>
<path d="M63.9905 32.4272H56.7621C56.3144 32.4272 55.9521 32.7895 55.9521 33.2372C55.9521 33.685 56.3144 34.0472 56.7621 34.0472H63.9905C64.4382 34.0472 64.8005 33.685 64.8005 33.2372C64.8005 32.7895 64.4382 32.4272 63.9905 32.4272Z" fill="white"/>
<path d="M52.7962 21.4615C52.9465 21.7218 53.2186 21.8665 53.4987 21.8665C53.6363 21.8665 53.7755 21.8317 53.9029 21.7582L60.163 18.144C60.5506 17.9201 60.6835 17.425 60.4596 17.0374C60.235 16.649 59.739 16.5169 59.353 16.7407L53.0929 20.3549C52.7053 20.5788 52.5724 21.0739 52.7962 21.4615Z" fill="white"/>
<path d="M48.6 5.1779C48.2132 4.95404 47.7173 5.08772 47.4934 5.47453L43.8792 11.7346C43.6554 12.1222 43.7883 12.6174 44.1759 12.8413C44.3032 12.9148 44.4424 12.9496 44.5801 12.9496C44.8601 12.9496 45.1322 12.8041 45.2825 12.5446L48.8967 6.28453C49.1205 5.89693 48.9876 5.40176 48.6 5.1779Z" fill="white"/>
</svg>
