<svg width="33" height="38" viewBox="0 0 33 38" fill="none" xmlns="http://www.w3.org/2000/svg">
<path d="M22.6596 25.2325L22.5743 25.3665L22.7312 25.3906C24.6127 25.6798 27.1423 26.2532 29.1986 27.2246C31.2631 28.1998 32.8063 29.5539 32.8063 31.386C32.8063 32.4321 32.2936 33.3577 31.3869 34.1621C30.479 34.9677 29.1818 35.6461 27.6317 36.1922C24.5322 37.2841 20.4473 37.8381 16.5209 37.8381C12.3213 37.8381 8.36195 37.2482 5.37199 36.1804C3.23088 35.4157 1.94676 34.5465 1.19854 33.7058C0.45222 32.8672 0.235431 32.053 0.235431 31.386C0.235431 29.5542 1.78044 28.1999 3.84598 27.2244C5.90323 26.2528 8.43279 25.6792 10.3104 25.3907L10.4674 25.3666L10.382 25.2326L6.8615 19.7084L6.86165 19.7083L6.85811 19.7034C5.3788 17.6559 4.60584 15.2158 4.60584 12.7389C4.60584 6.15477 9.96183 0.751056 16.5209 0.751056C23.1014 0.751056 28.4359 6.16537 28.4359 12.7389C28.4359 15.2175 27.6789 17.5951 26.2465 19.6155L26.2463 19.6158C26.2325 19.6354 26.2273 19.6418 26.2223 19.6482C26.1851 19.6959 26.1544 19.7487 22.6596 25.2325ZM24.6417 18.4591L24.6417 18.4591L8.56178 18.5069L8.47794 18.5678C8.47796 18.5678 8.47797 18.5678 8.47799 18.5678C8.48989 18.5842 8.50123 18.6009 8.5121 18.6179C8.51212 18.6179 8.51214 18.6179 8.51217 18.618L16.4335 31.0476L16.5209 31.1847L16.6083 31.0476C18.7255 27.7253 20.28 25.2855 21.4224 23.4925C22.5685 21.6938 23.2999 20.5459 23.7687 19.8109C24.5949 18.5153 24.6046 18.5038 24.6289 18.475C24.6322 18.4711 24.6358 18.4668 24.6417 18.4591ZM11.6732 27.2585L11.638 27.2033L11.573 27.2114C8.37181 27.6096 6.04234 28.3201 4.5099 29.0907C3.74394 29.4758 3.17358 29.8777 2.79316 30.2661C2.41477 30.6525 2.21345 31.037 2.21345 31.386C2.21345 31.8985 2.59942 32.4291 3.26552 32.9297C3.93718 33.4345 4.91767 33.9275 6.16189 34.3606C8.65142 35.2272 12.2142 35.86 16.5209 35.86C20.8528 35.86 24.4157 35.2233 26.899 34.3547C28.1401 33.9206 29.1158 33.4271 29.7835 32.923C30.4457 32.423 30.8283 31.8944 30.8283 31.386C30.8283 31.037 30.627 30.6525 30.2486 30.2661C29.8682 29.8777 29.2978 29.4758 28.5318 29.0907C26.9993 28.3201 24.6698 27.6096 21.4685 27.2114L21.4036 27.2033L21.3684 27.2585L17.3548 33.5565L17.4422 33.6122L17.3548 33.5565C17.1733 33.8414 16.8587 34.014 16.5208 34.014C16.1829 34.014 15.8684 33.8415 15.6868 33.5565L11.6732 27.2585Z" fill="white" stroke="#CC1C19" stroke-width="0.20719"/>
<path d="M11.1602 12.7389C11.1602 9.7838 13.5646 7.37947 16.5197 7.37947C19.4748 7.37947 21.8791 9.7838 21.8791 12.7389C21.8791 15.694 19.4748 18.0983 16.5197 18.0983C13.5646 18.0983 11.1602 15.694 11.1602 12.7389ZM13.1383 12.7389C13.1383 14.6035 14.6551 16.1203 16.5197 16.1203C18.3843 16.1203 19.9011 14.6035 19.9011 12.7389C19.9011 10.8743 18.3843 9.35749 16.5197 9.35749C14.6551 9.35749 13.1383 10.8743 13.1383 12.7389Z" fill="white" stroke="#CC1C19" stroke-width="0.20719"/>
</svg>
