<svg width="39" height="39" viewBox="0 0 39 39" fill="none" xmlns="http://www.w3.org/2000/svg">
<path d="M30.5331 19.295C30.5331 25.5017 25.5016 30.5332 19.2948 30.5332C13.0881 30.5332 8.05664 25.5017 8.05664 19.295C8.05664 13.0883 13.0881 8.05679 19.2948 8.05679C25.5016 8.05679 30.5331 13.0883 30.5331 19.295Z" stroke="white" stroke-width="1.16026" stroke-miterlimit="10" stroke-linecap="round" stroke-linejoin="round"/>
<path d="M25.5394 15.5476L18.0451 23.042L13.0488 18.0458" stroke="white" stroke-width="1.16026" stroke-miterlimit="10" stroke-linecap="round" stroke-linejoin="round"/>
<path d="M17.7878 1.20238C18.6552 0.463455 19.9305 0.463455 20.798 1.20238L23.814 3.86442L28.9178 3.46943C30.0538 3.38153 31.0857 4.13121 31.3531 5.23889L32.3763 9.47712L36.8357 12.1467C37.8064 12.7434 38.2005 13.9565 37.7659 15.0097L36.0041 19.279L37.7659 23.5483C38.2005 24.6016 37.8064 25.8147 36.8357 26.4114L32.3763 29.0809L31.3531 33.3192C31.0857 34.4268 30.0538 35.1765 28.9178 35.0886L23.8639 34.6974L20.798 37.3882C19.9305 38.1271 18.6552 38.1271 17.7878 37.3882L14.7219 34.6974L9.66797 35.0886C8.53192 35.1765 7.50008 34.4268 7.2327 33.3192L6.20534 29.0642L1.7535 26.4114C0.782698 25.8147 0.388591 24.6016 0.823316 23.5483L2.58496 19.279L0.823316 15.0097C0.388591 13.9565 0.782698 12.7434 1.7535 12.1467L5.82377 9.72836L7.2327 5.23889C7.50008 4.13121 8.53192 3.38153 9.66797 3.46943L14.7719 3.86442L17.7878 1.20238Z" stroke="white" stroke-width="1.16026" stroke-miterlimit="10" stroke-linecap="round" stroke-linejoin="round"/>
</svg>
